<svg xmlns="http://www.w3.org/2000/svg" xmlns:xlink="http://www.w3.org/1999/xlink" width="500" zoomAndPan="magnify" viewBox="0 0 375 374.999991" height="500" preserveAspectRatio="xMidYMid meet" version="1.0"><defs><clipPath id="d0ff89c8dd"><path d="M 111 7.558594 L 375 7.558594 L 375 367.558594 L 111 367.558594 Z M 111 7.558594 " clip-rule="nonzero"/></clipPath><clipPath id="2aee9d2338"><path d="M 0 7.558594 L 170 7.558594 L 170 98 L 0 98 Z M 0 7.558594 " clip-rule="nonzero"/></clipPath><clipPath id="b5819f35a3"><path d="M 111 52 L 330 52 L 330 367.558594 L 111 367.558594 Z M 111 52 " clip-rule="nonzero"/></clipPath><clipPath id="a9832858fc"><path d="M 0 7.558594 L 170 7.558594 L 170 98 L 0 98 Z M 0 7.558594 " clip-rule="nonzero"/></clipPath></defs><g clip-path="url(#d0ff89c8dd)"><path fill="#ffffff" d="M 278.042969 260.699219 L 349.25 367.441406 L 239.996094 367.441406 L 171.425781 264.617188 L 111.472656 174.648438 C 111.472656 174.648438 246.375 174.648438 246.425781 174.648438 C 267.402344 174.648438 284.984375 157.042969 284.984375 136.085938 C 284.984375 114.816406 267.695312 97.527344 246.425781 97.527344 L 213.972656 97.527344 L 154.015625 7.558594 L 246.425781 7.558594 C 317.4375 7.558594 374.953125 65.078125 374.953125 136.085938 C 374.953125 171.5625 360.558594 203.695312 337.292969 226.957031 C 321.304688 242.945312 299.933594 255.113281 278.042969 260.699219 " fill-opacity="1" fill-rule="evenodd"/></g><g clip-path="url(#2aee9d2338)"><path fill="#5ce1e6" d="M 169.292969 97.527344 L 60.03125 97.527344 L 0.0507812 7.558594 L 109.316406 7.558594 Z M 169.292969 97.527344 " fill-opacity="1" fill-rule="evenodd"/></g><g clip-path="url(#b5819f35a3)"><path fill="#ffffff" d="M 244.964844 222.488281 L 203.382812 222.488281 L 231.375 264.574219 L 299.949219 367.441406 L 239.96875 367.441406 L 196.785156 302.5625 L 111.511719 174.605469 C 111.511719 174.605469 246.371094 174.605469 246.464844 174.605469 C 267.359375 174.605469 284.953125 157.007812 284.953125 136.117188 C 284.953125 114.824219 267.660156 97.527344 246.464844 97.527344 L 213.992188 97.527344 L 184.007812 52.542969 L 244.964844 52.542969 C 291.953125 52.542969 329.941406 90.632812 329.941406 137.515625 C 329.941406 184.398438 291.953125 222.488281 244.964844 222.488281 " fill-opacity="1" fill-rule="evenodd"/></g><g clip-path="url(#a9832858fc)"><path fill="#5ce1e6" d="M 0.0507812 7.558594 L 60.03125 97.527344 L 169.292969 97.527344 L 139.300781 52.542969 L 93.785156 52.542969 C 58.78125 52.542969 25.519531 37.253906 2.734375 10.683594 Z M 0.0507812 7.558594 " fill-opacity="1" fill-rule="evenodd"/></g></svg>